<svg width="70" height="60" viewBox="0 0 70 60" fill="none" xmlns="http://www.w3.org/2000/svg">
<g clip-path="url(#clip0_2879_7579)">
<path d="M66.1491 14.1841V0C41.6243 3.10744 39.5122 25.7958 39.3301 29.6948H53.7936C53.7991 14.1841 66.1491 14.1841 66.1491 14.1841Z" fill="#FF6E41"/>
<path d="M26.819 14.1841V0C2.29355 3.10744 0.182082 25.7958 0 29.6948H14.4635C14.469 14.1841 26.819 14.1841 26.819 14.1841Z" fill="#FF6E41"/>
<path d="M0 59.9998H17.4648C24.7584 59.9998 30.6702 54.157 30.6702 46.9509V29.6953H0V59.9998Z" fill="#FF6E41"/>
<path d="M39.3301 29.6953V59.9998H56.7949C64.0885 59.9998 70.0003 54.157 70.0003 46.9509V29.6953H39.3308H39.3301Z" fill="#FF6E41"/>
</g>
<defs>
<clipPath id="clip0_2879_7579">
<rect width="70.0003" height="59.9998" fill="white"/>
</clipPath>
</defs>
</svg>
